<?xml version="1.0" standalone="no"?>
<!DOCTYPE svg PUBLIC "-//W3C//DTD SVG 1.1//EN" "http://www.w3.org/Graphics/SVG/1.1/DTD/svg11.dtd" >
<svg xmlns="http://www.w3.org/2000/svg">
<metadata>Generated by IcoMoon</metadata>
<defs>
<font id="icomoon" horiz-adv-x="1024">
<font-face units-per-em="1024" ascent="960" descent="-64" />
<missing-glyph horiz-adv-x="1024" />
<glyph unicode="&#x20;" horiz-adv-x="512" d="" />
<glyph unicode="&#xe900;" glyph-name="control-next" d="M512-64c-282.331 0-512 229.669-512 512s229.669 512 512 512c282.331 0 512-229.669 512-512s-229.669-512-512-512zM512 925.282c-263.152 0-477.282-214.13-477.282-477.282s214.13-477.282 477.282-477.282c263.201 0 477.282 214.13 477.282 477.282 0 263.168-214.081 477.282-477.282 477.282zM456.802 261.079c-4.584 0-9.183 1.69-12.678 5.087-3.25 3.089-5.271 7.445-5.271 12.272s2.021 9.182 5.264 12.265l0.007 0.007 162.702 157.306-162.702 157.29c-3.237 3.095-5.249 7.449-5.249 12.272s2.012 9.176 5.243 12.266l0.006 0.006c3.298 3.146 7.774 5.082 12.702 5.082s9.405-1.936 12.71-5.089l-0.007 0.007 175.38-169.561c3.245-3.089 5.263-7.441 5.263-12.264s-2.018-9.175-5.256-12.257l-0.007-0.007-175.38-169.545c-3.527-3.446-8.127-5.136-12.727-5.136z" />
<glyph unicode="&#xe901;" glyph-name="control-prev" d="M512-64c282.331 0 512 229.669 512 512s-229.669 512-512 512c-282.331 0-512-229.669-512-512s229.669-512 512-512zM512 925.282c263.152 0 477.282-214.114 477.282-477.282 0-263.152-214.13-477.282-477.282-477.282-263.201 0-477.282 214.13-477.282 477.282 0 263.168 214.081 477.282 477.282 477.282zM567.198 261.079c4.584 0 9.183 1.69 12.678 5.087 3.25 3.089 5.271 7.445 5.271 12.272s-2.021 9.182-5.264 12.265l-0.007 0.007-162.702 157.29 162.702 157.29c6.989 6.778 6.989 17.782 0 24.543-3.298 3.146-7.774 5.082-12.702 5.082s-9.405-1.936-12.71-5.089l0.007 0.007-175.38-169.561c-3.245-3.089-5.263-7.441-5.263-12.264s2.018-9.175 5.256-12.257l0.007-0.007 175.38-169.545c3.527-3.446 8.127-5.136 12.727-5.136z" />
<glyph unicode="&#xe902;" glyph-name="modal-close" d="M512 960c-282.761 0-512-229.239-512-512s229.239-512 512-512c282.761 0 512 229.239 512 512s-229.239 512-512 512zM512-32.017c-265.079 0-480.017 214.938-480.017 480.017 0.034 265.079 214.938 480.017 480.017 480.017 265.079-0.034 480.017-214.938 480.017-480.017s-214.938-480.017-480.017-480.017zM659.046 572.45l-22.63 22.63-124.416-124.45-124.45 124.45-22.63-22.63 124.45-124.45-124.45-124.416 22.63-22.63 124.45 124.416 124.416-124.416 22.63 22.63-124.416 124.416z" />
<glyph unicode="&#xe903;" glyph-name="next" horiz-adv-x="555" d="M30.549 885.547l429.397-437.419-429.653-437.717c-5.515-5.634-8.918-13.354-8.918-21.869 0-0.037 0-0.073 0-0.11v0.006c0-7.979 2.987-15.915 8.96-22.016 5.478-5.626 13.126-9.116 21.589-9.116s16.111 3.49 21.583 9.109l0.006 0.007 450.645 459.179c3.050 3.249 5.496 7.106 7.13 11.366l0.081 0.239c1.276 3.302 2.016 7.123 2.016 11.116 0 8.569-3.405 16.344-8.935 22.044l0.008-0.008-450.731 459.221c-5.478 5.626-13.126 9.116-21.589 9.116s-16.111-3.49-21.583-9.109l-0.006-0.007c-5.531-5.681-8.942-13.45-8.942-22.016s3.411-16.335 8.949-22.023l-0.007 0.007z" />
<glyph unicode="&#xe904;" glyph-name="prev" horiz-adv-x="555" d="M524.117 885.547l-429.397-437.419 429.653-437.717c5.973-6.059 8.917-14.037 8.917-21.973 0-7.979-2.987-15.915-8.96-22.016-5.478-5.626-13.126-9.116-21.589-9.116s-16.111 3.49-21.583 9.109l-0.006 0.007-450.603 459.179c-3.050 3.249-5.496 7.106-7.13 11.366l-0.081 0.239c-1.276 3.302-2.016 7.123-2.016 11.116 0 8.569 3.405 16.344 8.935 22.044l-0.008-0.008 450.688 459.221c5.478 5.626 13.126 9.116 21.589 9.116s16.111-3.49 21.583-9.109l0.006-0.007c5.531-5.681 8.942-13.45 8.942-22.016s-3.411-16.335-8.949-22.023l0.007 0.007z" />
<glyph unicode="&#xe905;" glyph-name="play-button" horiz-adv-x="928" d="M168.128 937.408c-92.864 52.992-168.128 9.6-168.128-96.768v-785.12c0-106.528 75.264-149.824 168.128-96.96l690.208 393.6c92.896 52.96 92.896 138.784 0 191.744l-690.208 393.504z" />
<glyph unicode="&#xe906;" glyph-name="facebook" horiz-adv-x="559" d="M537.507 959.783l-133.958 0.217c-150.497 0-247.777-98.925-247.777-251.997v-116.208h-134.703c-0.028 0-0.060 0-0.093 0-11.552 0-20.924-9.339-20.976-20.879v-168.344c0-11.543 9.433-20.883 21.070-20.883h134.672v-424.805c0-11.543 9.464-20.883 21.101-20.883h175.725c0.037 0 0.081 0 0.124 0 11.552 0 20.924 9.339 20.976 20.879v424.81h157.479c0.028 0 0.060 0 0.093 0 11.552 0 20.924 9.339 20.976 20.879v0.005l0.062 168.339c-0.013 5.782-2.385 11.008-6.203 14.768l-0.003 0.003c-3.821 3.779-9.077 6.113-14.878 6.113-0.006 0-0.011 0-0.017 0h-157.54v98.49c0 47.352 11.388 71.37 73.604 71.37l90.236 0.062c0.028 0 0.060 0 0.093 0 11.552 0 20.924 9.339 20.976 20.879v156.305c-0.053 11.545-9.424 20.883-20.976 20.883-0.022 0-0.044 0-0.066 0h0.003z" />
<glyph unicode="&#xe907;" glyph-name="google" d="M298.667 503.467v-102.4h169.387c-6.827-43.904-51.2-128.853-169.387-128.853-101.973 0-185.173 84.437-185.173 188.587 0 104.107 83.2 188.587 185.173 188.587 58.027 0 96.853-24.747 119.040-46.080l81.067 78.080c-52.053 48.64-119.467 78.080-200.107 78.080-165.12 0-298.667-133.547-298.667-298.667s133.547-298.667 298.667-298.667c172.373 0 286.763 121.173 286.763 291.84 0 19.627-2.176 34.56-4.736 49.493h-282.027zM298.667 503.467l725.333-85.333h-128v-128h-85.333v128h-128v85.333h128v128h85.333v-128h128v-85.333z" />
<glyph unicode="&#xe908;" glyph-name="instagram" d="M131.468 960h761.096c72.518-0.206 131.248-58.947 131.435-131.45v-761.147c-0.206-72.5-58.933-131.215-131.417-131.402h-761.081c-72.524 0.169-131.276 58.887-131.501 131.381v761.151c0 72.341 59.161 131.468 131.468 131.468zM745.967 846.27c-25.446-0.094-46.043-20.725-46.080-46.175v-110.332c0.075-25.426 20.657-46.019 46.071-46.113h115.721c25.449 0.075 46.057 20.695 46.113 46.141v110.333c-0.056 25.452-20.664 46.071-46.106 46.146h-115.719zM908.222 526.947h-90.079c8.522-27.879 13.18-57.311 13.18-87.899 0-170.281-142.567-308.389-318.365-308.389-175.732 0-318.299 138.075-318.299 308.389 0 30.588 4.658 60.020 13.18 87.899h-94.010v-432.59c0-22.396 18.3-40.63 40.663-40.63h713.1c22.396 0 40.63 18.234 40.63 40.63v432.59zM512.991 649.497c-113.532 0-205.626-89.187-205.626-199.317 0-109.997 92.094-199.284 205.626-199.284 113.598 0 205.692 89.253 205.692 199.284 0 110.097-92.094 199.284-205.692 199.284z" />
<glyph unicode="&#xe909;" glyph-name="telegram" horiz-adv-x="1170" d="M20.663 468.992l269.678-101.157 104.375-337.335c4.080-13.1 16.097-22.445 30.297-22.445 7.655 0 14.676 2.716 20.152 7.237l-0.054-0.043 150.309 123.173c7.639 6.298 17.526 10.117 28.305 10.117 9.918 0 19.081-3.233 26.492-8.704l-0.122 0.086 271.104-197.778c5.174-3.809 11.672-6.097 18.705-6.097 15.288 0 28.052 10.808 31.069 25.2l0.036 0.207 198.583 960.037c0.444 1.993 0.698 4.282 0.698 6.63 0 17.572-14.245 31.817-31.817 31.817-4.118 0-8.054-0.782-11.666-2.207l0.216 0.075-1106.651-429.056c-27.319-10.606-27.063-49.445 0.293-59.758zM377.893 421.705l526.994 326.217c9.509 5.851 19.237-7.058 11.081-14.629l-434.944-406.345c-14.84-13.916-24.982-32.684-27.887-53.762l-0.053-0.474-14.811-110.336c-1.938-14.738-22.565-16.201-26.587-1.938l-56.978 201.253c-1.291 4.375-2.034 9.401-2.034 14.601 0 19.060 9.98 35.788 24.999 45.246l0.221 0.13z" />
<glyph unicode="&#xe90a;" glyph-name="twitter" d="M1024 765.568c-35.137-16.009-75.896-27.653-118.641-32.866l-2.020-0.201c43.457 26.292 76.122 66.69 91.949 114.737l0.424 1.487c-38.404-23.19-83.102-40.879-130.717-50.529l-2.702-0.457c-38.369 40.881-92.746 66.347-153.070 66.347-0.096 0-0.193 0-0.289 0h0.015c-135.637 0-235.307-126.549-204.672-257.92-174.997 9.023-328.926 92.175-432.136 218.411l-0.845 1.066c-17.882-30.279-28.446-66.722-28.446-105.632 0-72.583 36.763-136.58 92.685-174.385l0.743-0.474c-35.082 1.14-67.685 10.746-96.147 26.825l1.043-0.542c-2.304-97.323 67.456-188.373 168.491-208.64-16.549-4.674-35.555-7.361-55.188-7.361-14.043 0-27.766 1.375-41.040 3.997l1.337-0.22c27.646-84.128 104.723-144.123 196.062-145.874l0.205-0.003c-71.049-56.139-161.915-90.050-260.702-90.050-17.741 0-35.227 1.094-52.393 3.217l2.055-0.207c90.872-59.182 202.074-94.379 321.498-94.379 0.193 0 0.387 0 0.58 0h-0.030c390.059 0 610.432 329.429 597.12 624.896 41.272 30.085 76.055 66.117 103.869 107.247l0.963 1.51z" />
<glyph unicode="&#xe90b;" glyph-name="youtube" horiz-adv-x="1457" d="M1400.438 872.094c-52.618 62.425-149.74 87.906-335.163 87.906h-673.319c-189.716 0-288.453-27.097-340.874-93.578-51.082-64.827-51.082-160.295-51.082-292.47v-251.904c0-256.079 60.652-386.048 391.995-386.048h673.241c160.847 0 249.974 22.449 307.633 77.588 59.156 56.478 84.362 148.756 84.362 308.46v251.904c0 139.382-3.938 235.441-56.793 298.142zM935.542 413.223l-305.703-159.547c-6.318-3.369-13.818-5.348-21.78-5.348-25.941 0-46.975 21.004-47.025 46.933v318.075c0 0.037 0 0.081 0 0.125 0 25.906 21.001 46.907 46.907 46.907 7.964 0 15.464-1.985 22.033-5.486l-0.253 0.123 305.703-158.523c15.177-7.975 25.35-23.629 25.35-41.66 0-17.984-10.121-33.604-24.977-41.476l-0.255-0.123z" />
<glyph unicode="&#xe90c;" glyph-name="refresh" d="M893.611 406.229c-20.864-192.384-183.723-342.229-381.611-342.229-0.004 0-0.008 0-0.012 0-114.902 0-217.982 50.612-288.164 130.759l-0.379 0.441 53.12 69.675c54.999-70.532 139.962-115.479 235.424-115.541h0.010c150.443 0 274.944 111.957 295.381 256.896h-124.715l170.667 224 170.667-224h-130.389zM216.747 490.667c20.779 144.512 145.067 256 295.253 256 95.281-0.059 180.093-44.828 234.601-114.461l0.493-0.653 53.077 69.632c-70.518 80.361-173.432 130.816-288.13 130.816-0.014 0-0.029 0-0.043 0h0.002c-197.632 0-360.235-149.376-381.483-341.333h-130.517l170.667-224 170.667 224h-124.587z" />
<glyph unicode="&#xe90d;" glyph-name="candles" d="M994.521 510.123h-65.164v104.293c54.21 13.56 94.642 63.426 94.642 122.787 0 17.749-5.306 50.672-51.293 131.413-23.986 42.077-47.6 76.955-48.593 78.445-5.327 7.828-14.184 12.91-24.23 12.94h-0.005c-10.050-0.030-18.908-5.112-24.169-12.838l-0.065-0.102c-13.962-20.37-30.035-45.979-45.228-72.161l-3.365-6.283c-45.987-80.741-51.293-113.664-51.293-131.413 0-59.361 40.401-109.258 94.642-122.787v-104.262h-65.164c-16.311-0.14-29.48-13.395-29.48-29.726 0-0.099 0-0.197 0.001-0.295v0.015-514.172c0-16.539 13.188-29.975 29.479-29.975h189.285c16.291 0 29.479 13.436 29.479 30.006v514.141c0.001 0.074 0.001 0.162 0.001 0.249 0 16.331-13.169 29.586-29.467 29.726h-0.013zM834.715 737.202c0 22 30.627 82.385 65.195 138.271 34.568-55.855 65.195-116.24 65.195-138.271 0-36.616-29.231-66.405-65.195-66.405s-65.195 29.789-65.195 66.405zM965.042-3.987h-130.327v454.128h130.327v-454.128zM218.764 510.123h-65.164v104.293c54.21 13.56 94.642 63.426 94.642 122.787 0 17.749-5.306 50.672-51.293 131.413-18.567 32.459-34.649 58.068-51.572 83.061l2.947-4.616c-5.321 7.82-14.165 12.899-24.197 12.94h-0.006c-10.050-0.030-18.908-5.112-24.169-12.838l-0.065-0.102c-13.962-20.37-30.035-45.979-45.228-72.161l-3.365-6.283c-45.987-80.741-51.293-113.664-51.293-131.413 0-59.361 40.401-109.258 94.642-122.787v-104.262h-65.164c-16.311-0.14-29.48-13.395-29.48-29.726 0-0.099 0-0.197 0.001-0.295v0.015-514.172c0-16.539 13.188-29.975 29.479-29.975h189.285c16.291 0 29.479 13.436 29.479 30.006v514.141c0.001 0.074 0.001 0.162 0.001 0.249 0 16.331-13.169 29.586-29.467 29.726h-0.013zM58.958 737.202c0 22 30.627 82.354 65.195 138.271 34.537-55.917 65.164-116.271 65.164-138.271 0-36.616-29.231-66.405-65.195-66.405s-65.195 29.789-65.195 66.405zM189.285-3.987h-130.327v454.128h130.327v-454.128zM591.127 510.123h-65.164v104.293c54.21 13.56 94.642 63.426 94.642 122.787 0 17.749-5.306 50.672-51.293 131.413-23.986 42.077-47.6 76.955-48.593 78.445-5.327 7.828-14.184 12.91-24.23 12.94h-0.005c-10.052-0.024-18.911-5.108-24.169-12.838l-0.065-0.102c-13.962-20.37-30.035-45.979-45.228-72.161l-3.365-6.283c-45.987-80.741-51.293-113.664-51.293-131.413 0-59.361 40.401-109.258 94.642-122.787v-104.262h-65.164c-16.311-0.14-29.48-13.395-29.48-29.726 0-0.099 0-0.197 0.001-0.295v0.015-514.172c0-16.539 13.188-29.975 29.479-29.975h189.285c16.291 0 29.479 13.436 29.479 30.006v514.141c0.001 0.074 0.001 0.162 0.001 0.249 0 16.331-13.169 29.586-29.467 29.726h-0.013zM431.321 737.202c0 22 30.627 82.385 65.195 138.271 34.568-55.855 65.195-116.24 65.195-138.271 0-36.616-29.231-66.405-65.195-66.405s-65.195 29.789-65.195 66.405zM561.648-3.987h-130.327v454.128h130.327v-454.128z" />
<glyph unicode="&#xe90e;" glyph-name="family" d="M812.588 448l138.445 239.733c1.5 2.532 2.386 5.58 2.386 8.836 0 9.695-7.859 17.554-17.554 17.554-0.016 0-0.032 0-0.048 0h-276.946l-136.953 237.1c-3.1 5.279-8.75 8.767-15.214 8.767s-12.114-3.488-15.169-8.685l-0.045-0.083-137.040-237.1h-276.685c-0.013 0-0.029 0-0.045 0-9.695 0-17.554-7.859-17.554-17.554 0-3.255 0.886-6.304 2.43-8.917l-0.045 0.082 138.416-239.733-138.416-239.733c-1.5-2.532-2.386-5.58-2.386-8.836 0-9.695 7.859-17.554 17.554-17.554 0.016 0 0.032 0 0.048 0h276.888l136.923-237.1c3.089-5.295 8.742-8.797 15.214-8.797s12.125 3.502 15.169 8.713l0.045 0.083 136.923 237.1h276.89c9.709 0.003 17.578 7.874 17.578 17.584 0 3.243-0.878 6.281-2.409 8.889l0.045-0.083-138.445 239.704zM905.333 678.956l-223.554-387.16h-45.7l185.49 321.214c1.479 2.518 2.352 5.545 2.352 8.777 0 9.695-7.859 17.554-17.554 17.554-0.004 0-0.008 0-0.012 0h-104.33l-22.85 39.614h226.158zM749.129 338.11l26.741-46.314h-53.482l26.741 46.314zM418.114 291.796l-90.2 156.175 90.258 156.233h177.298l90.2-156.204-90.2-156.233h-177.357zM749.1 557.861l-26.77 46.343h53.541l-26.77-46.343zM506.734 907.279l169.106-292.893c0.483-1.046 1-1.939 1.588-2.778l-0.038 0.057 51.405-88.942-22.821-39.585-83.88 145.232c-0.651 1.598-1.457 2.978-2.428 4.223l0.029-0.039-97.719 169.194c-3.089 5.295-8.742 8.797-15.214 8.797s-12.125-3.502-15.169-8.713l-0.045-0.083-50.703-87.625h-45.787l111.616 193.156zM532.041 714.123h-50.527l25.278 43.681 25.249-43.681zM108.222 678.956h444.094l22.85-39.585h-367.909c-0.008 0-0.018 0-0.028 0-9.695 0-17.554-7.859-17.554-17.554 0-3.244 0.88-6.282 2.414-8.889l-0.045 0.082 52.078-90.258-22.821-39.585-113.079 195.789zM264.455 557.89l-26.77 46.314h53.482l-26.741-46.314zM108.222 217.044l223.525 387.16h45.817l-185.549-321.185c-1.5-2.532-2.386-5.58-2.386-8.836 0-9.695 7.859-17.554 17.554-17.554 0.016 0 0.032 0 0.048 0h104.27l22.85-39.585h-226.158zM264.455 338.11l26.741-46.314h-53.482l26.741 46.314zM506.792-11.279l-168.814 292.337c-0.586 1.374-1.272 2.558-2.081 3.645l0.033-0.047-51.2 88.591 22.879 39.556 83.851-145.174c0.652-1.598 1.458-2.978 2.429-4.223l-0.029 0.039 40.258-69.72c0.731-2.136 1.872-4.096 3.335-5.764l54.126-93.711c3.089-5.295 8.742-8.797 15.214-8.797s12.125 3.502 15.169 8.713l0.045 0.083 50.615 87.625h45.7l-111.528-193.156zM481.573 181.877h50.439l-25.22-43.681-25.22 43.681zM461.268 217.044l-22.85 39.585h367.909c0.008 0 0.018 0 0.028 0 9.695 0 17.554 7.859 17.554 17.554 0 3.244-0.88 6.282-2.414 8.889l0.045-0.082-52.136 90.258 22.821 39.585 113.108-195.789h-444.123z" />
<glyph unicode="&#xe90f;" glyph-name="paper" horiz-adv-x="1258" d="M1102.614 960h-36.864v-172.91h-754.864v17.554c-0.117 85.784-69.652 155.289-155.437 155.355h-0.007c-85.791-0.067-155.327-69.571-155.443-155.344v-713.3c0.117-85.784 69.652-155.289 155.437-155.355h947.177c85.791 0.067 155.327 69.571 155.443 155.344v713.3c-0.117 85.784-69.652 155.289-155.437 155.355h-0.007zM175.543 872.229c48.391 0 87.771-37.186 87.771-82.915v-590c-25.021 14.859-55.161 23.64-87.351 23.64-0.148 0-0.295 0-0.443-0.001h0.023c-32.183 0-62.259-8.689-87.771-23.64v590c0 45.758 39.38 82.915 87.771 82.915zM87.771 82.286c0 48.391 39.38 87.771 87.771 87.771s87.771-39.38 87.771-87.771-39.38-87.771-87.771-87.771-87.771 39.38-87.771 87.771zM1116.891 23.771h-824.32c14.921 23.698 23.552 51.61 23.552 81.481v620.69h763.494v-539.209h37.274c45.583 0 82.651-36.542 82.651-81.481s-37.069-81.481-82.651-81.481zM1199.543 228.571c-16.878 8.053-36.492 14.485-57.022 18.318l-1.492 0.231v625.108c34.699-13.283 58.514-40.433 58.514-71.739v-571.919z" />
<glyph unicode="&#xe910;" glyph-name="search" d="M1024-15.744l-302.976 300.8c61.017 70.807 98.176 163.68 98.176 265.231 0 0.085 0 0.169 0 0.254v-0.013c-0.291 226.073-183.517 409.254-409.579 409.472h-0.021c-225.92 0-409.6-183.68-409.6-409.536 0-225.92 183.68-409.664 409.6-409.664 0.043 0 0.094 0 0.145 0 100.463 0 192.436 36.35 263.484 96.615l-0.589-0.487 303.168-300.928 48.256 48.256zM409.6 209.088c-188.472 0.073-341.239 152.84-341.312 341.305v0.007c0 188.501 152.811 341.312 341.312 341.312s341.312-152.811 341.312-341.312c0-188.501-152.811-341.312-341.312-341.312v0z" />
<glyph unicode="&#xe911;" glyph-name="two-candles" horiz-adv-x="621" d="M218.764 510.123h-65.164v104.293c54.21 13.56 94.642 63.426 94.642 122.787 0 17.749-5.306 50.672-51.293 131.413-18.567 32.459-34.649 58.068-51.572 83.061l2.947-4.616c-5.321 7.82-14.165 12.899-24.197 12.94h-0.006c-10.050-0.030-18.908-5.112-24.169-12.838l-0.065-0.102c-13.962-20.37-30.035-45.979-45.228-72.161l-3.365-6.283c-45.987-80.741-51.293-113.664-51.293-131.413 0-59.361 40.401-109.258 94.642-122.787v-104.262h-65.164c-16.311-0.14-29.48-13.395-29.48-29.726 0-0.099 0-0.197 0.001-0.295v0.015-514.172c0-16.539 13.188-29.975 29.479-29.975h189.285c16.291 0 29.479 13.436 29.479 30.006v514.141c0.001 0.074 0.001 0.162 0.001 0.249 0 16.331-13.169 29.586-29.467 29.726h-0.013zM58.958 737.202c0 22 30.627 82.354 65.195 138.271 34.537-55.917 65.164-116.271 65.164-138.271 0-36.616-29.231-66.405-65.195-66.405s-65.195 29.789-65.195 66.405zM189.285-3.987h-130.327v454.128h130.327v-454.128zM591.127 510.123h-65.164v104.293c54.21 13.56 94.642 63.426 94.642 122.787 0 17.749-5.306 50.672-51.293 131.413-23.986 42.077-47.6 76.955-48.593 78.445-5.327 7.828-14.184 12.91-24.23 12.94h-0.005c-10.052-0.024-18.911-5.108-24.169-12.838l-0.065-0.102c-13.962-20.37-30.035-45.979-45.228-72.161l-3.365-6.283c-45.987-80.741-51.293-113.664-51.293-131.413 0-59.361 40.401-109.258 94.642-122.787v-104.262h-65.164c-16.311-0.14-29.48-13.395-29.48-29.726 0-0.099 0-0.197 0.001-0.295v0.015-514.172c0-16.539 13.188-29.975 29.479-29.975h189.285c16.291 0 29.479 13.436 29.479 30.006v514.141c0.001 0.074 0.001 0.162 0.001 0.249 0 16.331-13.169 29.586-29.467 29.726h-0.013zM431.321 737.202c0 22 30.627 82.385 65.195 138.271 34.568-55.855 65.195-116.24 65.195-138.271 0-36.616-29.231-66.405-65.195-66.405s-65.195 29.789-65.195 66.405zM561.648-3.987h-130.327v454.128h130.327v-454.128z" />
<glyph unicode="&#xe912;" glyph-name="menu-open" d="M1024 704h-1024v170.667h1024v-170.667zM1024 533.333h-1024v-170.667h1024v170.667zM1024 192h-1024v-170.667h1024v170.667z" />
<glyph unicode="&#xe913;" glyph-name="menu-close" d="M1022.037 62.72l-391.851 388.053 387.925 391.424-120.832 119.765-387.84-391.637-391.509 387.755-119.893-119.893 391.936-388.48-388.053-391.851 119.893-119.893 388.779 392.192 391.68-388.267z" />
<glyph unicode="&#xe914;" glyph-name="envelope" horiz-adv-x="1303" d="M125.114 644.422c16.477-11.729 66.095-46.266 149.039-103.703 82.851-57.437 146.432-101.748 190.557-132.748 4.841-3.351 15.174-10.799 30.906-22.156 15.825-11.45 28.858-20.666 39.284-27.648 10.426-7.075 22.993-14.895 37.795-23.645 14.895-8.751 28.765-15.267 41.891-19.549 13.033-4.468 25.135-6.609 36.305-6.609h1.489c11.171 0 23.273 2.141 36.305 6.516 13.126 4.375 27.089 10.892 41.891 19.642s27.369 16.57 37.795 23.645c10.426 6.982 23.552 16.198 39.284 27.648 15.825 11.357 26.065 18.804 30.906 22.156l340.34 236.451c35.375 24.669 64.977 54.458 88.716 89.367s35.654 71.494 35.654 109.847c0.006 0.423 0.009 0.923 0.009 1.423 0 31.746-13.242 60.399-34.504 80.736l-0.042 0.040c-20.449 21.085-49.042 34.17-80.692 34.17-0.399 0-0.798-0.002-1.196-0.006h-1070.484c-37.329 0-66.095-12.567-86.202-37.795s-30.161-56.785-30.161-94.58c0-30.534 13.312-63.674 40.029-99.235 26.624-35.654 54.924-63.674 85.085-84.061zM1230.569 528.244c-180.266-112.61-298.327-190.361-415.222-269.7l53.098 33.994c-27.741-19.084-50.176-34.071-67.398-44.684-17.129-10.705-40.029-21.69-68.701-32.861-28.579-11.171-55.203-16.756-79.965-16.756h-1.489c-24.669 0-51.386 5.585-80.058 16.756-26.537 9.996-49.144 21.052-70.526 33.933l1.918-1.072c-29.24 18.385-51.18 33.116-72.756 48.329l5.452-3.646c-65.443 45.056-185.903 123.625-361.472 235.706-27.835 17.424-51.927 37.047-73.335 59.274l-0.113 0.118v-542.348c0-30.068 11.357-55.855 34.164-77.265 22.807-21.318 50.269-32.023 82.199-32.023h1070.545c32.023 0 59.392 10.705 82.199 32.116s34.164 47.104 34.164 77.265v542.255c-21.399-22.194-45.231-41.795-71.137-58.449l-1.567-0.943z" />
<glyph unicode="&#xe915;" glyph-name="maps-and-flags" horiz-adv-x="723" d="M361.412 960c-199.258 0-361.412-166.37-361.412-370.869 0-253.771 323.464-626.327 337.197-642.108 12.951-14.758 35.539-14.697 48.429 0 13.794 15.842 337.197 388.337 337.197 642.168 0 204.439-162.153 370.808-361.412 370.808zM361.412 402.583c-100.292 0-181.85 83.727-181.85 186.549 0 102.882 81.559 186.609 181.85 186.609s181.85-83.727 181.85-186.609-81.559-186.549-181.85-186.549z" />
<glyph unicode="&#xe916;" glyph-name="phone-receiver" d="M1023.518 151.883c0.332-2.156 0.522-4.642 0.522-7.173 0-14.267-6.027-27.127-15.674-36.171l-0.027-0.025-144.203-143.24c-6.505-7.228-14.999-13.372-25.48-18.432-8.938-4.544-19.311-7.954-30.244-9.681l-0.596-0.078-6.505-0.542c-3.614-0.361-8.312-0.542-14.095-0.542-13.734 0-35.96 2.349-66.68 7.048s-68.307 16.264-112.76 34.696c-44.454 18.432-94.871 46.14-151.191 83.004-56.38 36.864-116.375 87.522-179.983 151.853-50.598 49.935-92.521 97.581-125.711 143.179-27.431 36.493-54.015 77.814-77.566 121.027l-2.667 5.347c-16.28 29.538-31.671 64.303-44.106 100.444l-1.432 4.787c-7.902 22.516-15.047 49.856-20.095 77.925l-0.506 3.393c-2.793 14.548-4.39 31.28-4.39 48.385 0 1.879 0.019 3.754 0.058 5.624l-0.005-0.279c0.723 13.011 1.084 20.239 1.084 21.685 1.446 10.12 4.698 20.48 9.758 30.961 4.646 9.944 10.845 18.399 18.385 25.436l0.047 0.044 144.143 144.264c8.688 9.303 21.006 15.119 34.685 15.179h0.011c9.397 0 17.709-2.711 24.937-8.132s13.372-12.107 18.432-20.058l116.013-220.22c4.281-7.462 6.805-16.404 6.805-25.936 0-4.261-0.504-8.404-1.457-12.373l0.073 0.36c-2.891-13.734-9.035-25.299-18.432-34.696l-53.128-53.188c-1.715-1.959-3.023-4.32-3.764-6.92l-0.031-0.127c-0.913-2.402-1.499-5.179-1.624-8.076l-0.002-0.056c2.891-15.179 9.397-32.527 19.516-52.043 8.674-17.408 22.046-38.551 40.117-63.488s43.731-53.67 76.981-86.257c32.527-33.25 61.44-59.091 86.739-77.523s46.381-31.985 63.368-40.719c16.986-8.674 29.997-13.854 39.032-15.661l13.553-2.771c2.593 0.23 4.984 0.807 7.223 1.687l-0.175-0.061c2.728 0.771 5.089 2.079 7.068 3.813l-0.021-0.018 61.801 62.946c13.011 11.565 28.19 17.348 45.538 17.348 12.288 0 22.046-2.168 29.274-6.505h1.084l209.197-123.663c15.179-9.397 24.215-21.323 27.106-35.78z" />
<glyph unicode="&#xe917;" glyph-name="moon" d="M884.55 238.359c-13.079-1.678-28.209-2.635-43.564-2.635-1.605 0-3.207 0.010-4.807 0.031l0.242-0.002c-231.052 0-418.257 191.395-418.257 427.846 0 81.734 22.993 161.42 65.815 230.4 17.78 29.975-5.679 69.073-40.215 65.815-275.084-33.14-472.716-287.651-440.32-569.53 32.489-281.786 281.321-483.421 556.404-450.839 154.758 19.309 285.775 106.863 363.694 231.104l1.222 2.089c17.873 29.975-5.679 69.539-40.215 65.722zM501.76 21.83c-231.052 0-418.257 191.395-418.257 427.846 0 184.506 116.084 348.625 287.651 406.435-104.169-263.168 20.294-562.641 277.597-668.486 49.152-20.387 100.352-32.582 153.228-36.305-75.531-79.662-182.060-129.289-300.181-129.489h-0.037zM605.091 587.636h93.091v46.545h46.545v93.091h-46.545v46.545h-93.091v-46.545h-46.545v-93.091h46.545zM977.455 913.455v46.545h-93.091v-46.545h-46.545v-93.091h46.545v-46.545h93.091v46.545h46.545v93.091zM791.273 308.364h93.091v46.545h46.545v93.091h-46.545v46.545h-93.091v-46.545h-46.545v-93.091h46.545z" />
<glyph unicode="&#xe918;" glyph-name="synagogue" horiz-adv-x="853" d="M830.891 362.667h-112.384v106.667c0 145.664-118.955 265.301-269.483 276.224v90.368c25.953 8.276 44.519 31.937 45.055 60.012l0.001 0.062c0 35.328-30.293 64-67.413 64s-67.413-28.672-67.413-64c0-27.733 18.859-51.2 44.971-60.075v-90.368c-150.528-10.837-269.483-130.475-269.483-276.224v-106.667h-112.299c-0.155 0.004-0.337 0.006-0.52 0.006-11.904 0-21.593-9.485-21.922-21.309l-0.001-0.030v-384c0-11.776 10.069-21.333 22.443-21.333h314.368c0.18-0.005 0.392-0.008 0.605-0.008 11.905 0 21.594 9.486 21.922 21.311l0.001 0.030v128c0 35.328 30.208 64 67.328 64s67.413-28.672 67.413-64v-128c0-11.776 9.984-21.333 22.443-21.333h314.368c0.155-0.004 0.337-0.006 0.52-0.006 11.904 0 21.593 9.485 21.922 21.309l0.001 0.030v384c-0.33 11.855-10.019 21.339-21.923 21.339-0.183 0-0.365-0.002-0.547-0.007l0.027 0.001zM426.667 917.333c12.373 0 22.443-9.557 22.443-21.333s-10.069-21.333-22.443-21.333c-0.155-0.004-0.337-0.006-0.52-0.006-11.904 0-21.593 9.485-21.922 21.309l-0.001 0.030c0 11.776 10.069 21.333 22.443 21.333zM426.667 704c128.597 0 234.496-93.867 245.931-213.333h-491.861c11.435 119.467 117.333 213.333 245.931 213.333zM179.627 448h494.080v-85.333h-494.080v85.333zM808.448-21.333h-269.483v106.667c0 58.795-50.347 106.667-112.299 106.667-61.867 0-112.299-47.872-112.299-106.667v-106.667h-269.483v341.333h763.563v-341.333z" />
<glyph unicode="&#xe919;" glyph-name="torah" horiz-adv-x="1126" d="M961.434 755.2v26.112c17.211-16.137 40.415-26.065 65.936-26.112h0.009c54.579 0 99.021 45.978 99.021 102.4s-44.442 102.4-99.021 102.4c-25.531-0.047-48.734-9.975-65.998-26.161l0.053 0.049v26.112h-796.57v-26.112c-17.187 16.115-40.349 26.037-65.828 26.112h-0.015c-54.579 0-99.021-45.978-99.021-102.4s44.442-102.4 99.021-102.4c25.531 0.047 48.734 9.975 65.998 26.161l-0.053-0.049v-26.112h33.075v-614.4h-33.178v-26.112c-17.187 16.115-40.349 26.037-65.828 26.112h-0.015c-54.579 0-99.021-45.978-99.021-102.4s44.442-102.4 99.021-102.4c25.531 0.047 48.734 9.975 65.998 26.161l-0.053-0.049v-26.112h796.57v26.112c17.211-16.137 40.415-26.065 65.936-26.112h0.009c54.579 0 99.021 45.978 99.021 102.4s-44.442 102.4-99.021 102.4c-25.531-0.047-48.734-9.975-65.998-26.161l0.053 0.049v26.112h-33.075v614.4h33.075zM192.41 823.501c3.608 10.181 5.693 21.922 5.693 34.15s-2.085 23.97-5.919 34.888l0.226-0.738h741.683c-3.612-10.18-5.699-21.922-5.699-34.15s2.087-23.97 5.925-34.887l-0.226 0.737h-741.786zM1027.379 891.699c18.227 0 32.973-15.36 32.973-34.099 0.003-0.154 0.004-0.336 0.004-0.518 0-18.335-14.692-33.239-32.945-33.581h-0.032c-18.285 0.343-32.977 15.247-32.977 33.582 0 0.182 0.001 0.364 0.004 0.545v-0.027c0 18.842 14.848 34.099 32.973 34.099zM99.021 823.501c-18.285 0.343-32.977 15.247-32.977 33.582 0 0.182 0.001 0.364 0.004 0.545v-0.027c0 18.842 14.746 34.099 32.973 34.099 18.125 0 32.973-15.36 32.973-34.099 0.003-0.154 0.004-0.336 0.004-0.518 0-18.335-14.692-33.239-32.945-33.581h-0.032zM934.093 72.499c-3.601-10.166-5.682-21.889-5.682-34.099s2.081-23.934 5.907-34.836l-0.225 0.737h-741.786c3.601 10.166 5.682 21.889 5.682 34.099s-2.081 23.934-5.907 34.836l0.225-0.737h741.786zM99.021 4.301c-18.285 0.343-32.977 15.247-32.977 33.582 0 0.182 0.001 0.364 0.004 0.545v-0.027c0 18.842 14.746 34.099 32.973 34.099 18.125 0 32.973-15.36 32.973-34.099 0.003-0.154 0.004-0.336 0.004-0.518 0-18.335-14.692-33.239-32.945-33.581h-0.032zM1027.379 72.499c18.227 0 32.973-15.36 32.973-34.099 0.003-0.154 0.004-0.336 0.004-0.518 0-18.335-14.692-33.239-32.945-33.581h-0.032c-18.285 0.343-32.977 15.247-32.977 33.582 0 0.182 0.001 0.364 0.004 0.545v-0.027c0 18.842 14.848 34.099 32.973 34.099zM862.413 140.8h-598.426v614.4h598.426v-614.4zM307.2 652.8h512v-102.4h-512zM307.2 550.4h512v-102.4h-512zM307.2 448h512v-102.4h-512zM307.2 243.2h512v-102.4h-512z" />
</font>
</defs>
</svg>
