<svg xmlns="http://www.w3.org/2000/svg" width="33" height="33"><path d="M32.05 14.498h-2.1v-3.361C31.697 10.7 33 9.093 33 7.18c0-.572-.171-1.633-1.653-4.235-.773-1.356-1.534-2.48-1.566-2.528A.945.945 0 0 0 29 0a.945.945 0 0 0-.781.417 42.275 42.275 0 0 0-1.566 2.528C25.171 5.547 25 6.608 25 7.18c0 1.913 1.302 3.521 3.05 3.957v3.36h-2.1a.958.958 0 0 0-.95.967v16.57c0 .533.425.966.95.966h6.1c.525 0 .95-.433.95-.967V15.464a.958.958 0 0 0-.95-.966zM26.9 7.18c0-.709.987-2.655 2.101-4.456 1.114 1.8 2.101 3.746 2.101 4.456 0 1.18-.942 2.14-2.101 2.14S26.9 8.36 26.9 7.18zm4.2 23.886h-4.2V16.431h4.2v14.635zM7.05 14.498h-2.1v-3.361C6.697 10.7 8 9.093 8 7.18c0-.572-.171-1.633-1.653-4.235A42.26 42.26 0 0 0 4.78.417.945.945 0 0 0 4 0a.945.945 0 0 0-.781.417 42.275 42.275 0 0 0-1.566 2.528C.171 5.547 0 6.608 0 7.18c0 1.913 1.302 3.521 3.05 3.957v3.36H.95a.958.958 0 0 0-.95.967v16.57c0 .533.425.966.95.966h6.1c.525 0 .95-.433.95-.967V15.464a.958.958 0 0 0-.95-.966zM1.9 7.18c0-.709.987-2.654 2.101-4.456 1.113 1.802 2.1 3.747 2.1 4.456 0 1.18-.942 2.14-2.101 2.14s-2.101-.96-2.101-2.14zm4.2 23.886H1.9V16.431h4.2v14.635zm12.95-16.568h-2.1v-3.361C18.697 10.7 20 9.093 20 7.18c0-.572-.171-1.633-1.653-4.235-.773-1.356-1.534-2.48-1.566-2.528A.945.945 0 0 0 16 0a.944.944 0 0 0-.781.417 42.275 42.275 0 0 0-1.566 2.528C12.171 5.547 12 6.608 12 7.18c0 1.913 1.302 3.521 3.05 3.957v3.36h-2.1a.958.958 0 0 0-.95.967v16.57c0 .533.425.966.95.966h6.1c.525 0 .95-.433.95-.967V15.464a.958.958 0 0 0-.95-.966zM13.9 7.18c0-.709.987-2.655 2.101-4.456 1.114 1.8 2.101 3.746 2.101 4.456 0 1.18-.942 2.14-2.101 2.14S13.9 8.36 13.9 7.18zm4.2 23.886h-4.2V16.431h4.2v14.635z" fill="#0095B3"/></svg>