<svg xmlns="http://www.w3.org/2000/svg" width="63" height="63"><g fill="#0095B3"><path d="M31.5 63C14.13 63 0 48.87 0 31.5 0 14.13 14.13 0 31.5 0 48.87 0 63 14.13 63 31.5 63 48.87 48.87 63 31.5 63zm0-60.864C15.31 2.136 2.136 15.31 2.136 31.5S15.31 60.864 31.5 60.864c16.193 0 29.364-13.174 29.364-29.364 0-16.191-13.171-29.364-29.364-29.364z"/><path d="M28.104 43c-.282 0-.565-.104-.78-.313a1.041 1.041 0 0 1 0-1.51l10.01-9.678-10.01-9.677a1.044 1.044 0 0 1 0-1.51 1.133 1.133 0 0 1 1.563 0l10.79 10.432a1.041 1.041 0 0 1 0 1.509l-10.79 10.431c-.217.212-.5.316-.783.316z"/></g></svg>