<svg xmlns="http://www.w3.org/2000/svg" width="63" height="63"><g fill="#C7CDCE"><path d="M31.5 63C48.87 63 63 48.87 63 31.5 63 14.13 48.87 0 31.5 0 14.13 0 0 14.13 0 31.5 0 48.87 14.13 63 31.5 63zm0-60.864c16.19 0 29.364 13.173 29.364 29.364 0 16.19-13.174 29.364-29.364 29.364-16.193 0-29.364-13.174-29.364-29.364 0-16.191 13.171-29.364 29.364-29.364z"/><path d="M34.896 43c.282 0 .565-.104.78-.313a1.041 1.041 0 0 0 0-1.51L25.666 31.5l10.01-9.677c.43-.417.43-1.094 0-1.51a1.133 1.133 0 0 0-1.563 0l-10.79 10.432a1.041 1.041 0 0 0 0 1.509l10.79 10.431c.217.212.5.316.783.316z"/></g></svg>