<svg xmlns="http://www.w3.org/2000/svg" width="14" height="11"><g fill="#0095B3"><path d="M1.344 3.39c.177.126.71.497 1.601 1.114.89.617 1.573 1.093 2.047 1.426.052.036.163.116.332.238.17.123.31.222.422.297.112.076.247.16.406.254.16.094.309.164.45.21.14.048.27.071.39.071h.016c.12 0 .25-.023.39-.07.141-.047.291-.117.45-.211.159-.094.294-.178.406-.254.112-.075.253-.174.422-.297.17-.122.28-.202.332-.238l3.656-2.54c.38-.265.698-.585.953-.96S14 1.662 14 1.25a1.2 1.2 0 0 0-.371-.883A1.207 1.207 0 0 0 12.75 0H1.25C.849 0 .54.135.324.406.108.677 0 1.016 0 1.422c0 .328.143.684.43 1.066.286.383.59.684.914.903z"/><path d="M13.219 4.638a163.037 163.037 0 0 0-3.89 2.532c-.298.205-.539.366-.724.48-.184.115-.43.233-.738.353-.307.12-.593.18-.859.18h-.016c-.265 0-.552-.06-.86-.18a4.577 4.577 0 0 1-.737-.353 18.551 18.551 0 0 1-.723-.48C3.969 6.686 2.675 5.842.789 4.638A4.078 4.078 0 0 1 0 4v5.826c0 .323.122.6.367.83.245.229.54.344.883.344h11.5c.344 0 .638-.115.883-.345.245-.23.367-.506.367-.83V4a4.241 4.241 0 0 1-.781.638z"/></g></svg>