<svg xmlns="http://www.w3.org/2000/svg" width="35" height="35"><path fill="#0095B3" d="M27.774 17.5l4.732-8.194a.6.6 0 0 0-.52-.902H22.52L17.839.3a.601.601 0 0 0-1.04 0l-4.684 8.104H2.658a.6.6 0 0 0-.52.902L6.869 17.5l-4.731 8.194a.6.6 0 0 0 .52.902h9.464l4.68 8.104a.6.6 0 0 0 1.04 0l4.68-8.104h9.464a.601.601 0 0 0 .52-.902l-4.732-8.193zm3.17-7.894l-5.85 10.132-.005.01-1.786 3.091h-1.562l6.34-10.979a.6.6 0 0 0-.52-.9h-3.566l-.781-1.354h7.73zm-5.339 11.65l.914 1.583h-1.828l.914-1.583zm-11.314 1.583l-3.083-5.338 3.085-5.34h6.06l3.083 5.339-3.083 5.34h-6.062zm11.313-9.094l-.915-1.584h1.83l-.915 1.584zM17.32 1.802l5.78 10.011a.604.604 0 0 0 .053.093l1.757 3.04-.78 1.353-2.867-4.964a.598.598 0 0 0-.082-.143l-3.34-5.783a.6.6 0 0 0-1.04 0l-1.733 2.995h-1.565l3.815-6.602zm.865 6.602h-1.727l.864-1.493.863 1.493zM3.699 9.606h15.179l.781 1.353H7.084a.6.6 0 0 0-.52.901l1.78 3.085-.78 1.353-3.865-6.692zm5.34 4.138l-.915-1.583h1.828l-.914 1.583zm-5.34 11.65l4.375-7.578.005-.009 3.26-5.646h1.566l-2.903 5.025-.001.003-3.438 5.95a.6.6 0 0 0 .52.902h3.564l.781 1.353h-7.73zm5.34-4.138l.914 1.583H8.125l.914-1.583zm8.283 11.942l-5.77-9.992a.6.6 0 0 0-.07-.123l-1.75-3.028.782-1.352 2.866 4.962a.6.6 0 0 0 .082.143l1.376 2.383c.025.073.064.14.114.197l1.85 3.203a.6.6 0 0 0 1.04 0l1.73-2.995h1.562l-3.812 6.602zm-.862-6.602h1.724l-.862 1.493-.862-1.493zm-.694-1.202l-.781-1.353H27.56a.6.6 0 0 0 .52-.901l-1.782-3.085.78-1.353 3.866 6.692h-15.18z"/></svg>