<svg xmlns="http://www.w3.org/2000/svg" width="31" height="31"><path fill="#0095b3" d="M3.98 0h23.041A3.99 3.99 0 0 1 31 3.98v23.042A3.989 3.989 0 0 1 27.021 31H3.981A3.99 3.99 0 0 1 0 27.022V3.98C0 1.79 1.791 0 3.98 0zm18.603 3.443a1.4 1.4 0 0 0-1.395 1.398v3.34a1.4 1.4 0 0 0 1.395 1.396h3.503a1.4 1.4 0 0 0 1.396-1.397V4.84a1.4 1.4 0 0 0-1.396-1.397h-3.503zm4.912 9.667h-2.727c.258.844.399 1.735.399 2.661 0 5.155-4.316 9.336-9.638 9.336-5.32 0-9.636-4.18-9.636-9.336 0-.926.141-1.817.399-2.661H3.446v13.096c0 .678.554 1.23 1.231 1.23h21.588c.678 0 1.23-.552 1.23-1.23V13.11zM15.53 9.4c-3.437 0-6.225 2.7-6.225 6.034 0 3.33 2.788 6.033 6.225 6.033 3.439 0 6.227-2.702 6.227-6.033 0-3.333-2.788-6.033-6.227-6.033z"/></svg>