<svg xmlns="http://www.w3.org/2000/svg" width="11" height="11"><path d="M9.502 7.752a3.882 3.882 0 0 1-.517.028c-2.482 0-4.493-2.056-4.493-4.596 0-.878.247-1.734.707-2.475.191-.322-.061-.742-.432-.707C1.812.358-.311 3.092.037 6.12c.349 3.027 3.022 5.193 5.977 4.843a5.372 5.372 0 0 0 3.92-2.505c.192-.322-.061-.747-.432-.706zM5.39 10.078c-2.482 0-4.493-2.056-4.493-4.596 0-1.982 1.247-3.745 3.09-4.366-1.119 2.827.218 6.044 2.982 7.181.528.219 1.078.35 1.646.39a4.451 4.451 0 0 1-3.225 1.391z"/><path d="M6.5 4h1v-.5H8v-1h-.5V2h-1v.5H6v1h.5zm4-3.5V0h-1v.5H9v1h.5V2h1v-.5h.5v-1zM8.5 7h1v-.5h.5v-1h-.5V5h-1v.5H8v1h.5z"/></svg>