<svg xmlns="http://www.w3.org/2000/svg" width="43" height="35"><path fill="#0095B3" d="M37.687 0h-1.26v5.91H10.626v-.6A5.317 5.317 0 0 0 5.313 0 5.317 5.317 0 0 0 0 5.31v24.38A5.317 5.317 0 0 0 5.313 35h32.374A5.317 5.317 0 0 0 43 29.69V5.31A5.317 5.317 0 0 0 37.687 0zM6 3c1.654 0 3 1.271 3 2.834V26a5.92 5.92 0 0 0-3-.808c-1.1 0-2.128.297-3 .808V5.834C3 4.27 4.346 3 6 3zM3 30c0-1.654 1.346-3 3-3s3 1.346 3 3-1.346 3-3 3-3-1.346-3-3zm35.175 2H10c.51-.81.805-1.764.805-2.785V8h26.096v18.43h1.274c1.558 0 2.825 1.249 2.825 2.785S39.733 32 38.175 32zM41 25a8.246 8.246 0 0 0-2-.634V3c1.186.454 2 1.382 2 2.452V25z"/></svg>