<svg xmlns="http://www.w3.org/2000/svg" width="17" height="17"><path fill="#0095B3" d="M16.992 13.416a.823.823 0 0 1-.252.72l-2.394 2.378c-.108.12-.249.222-.423.306a1.747 1.747 0 0 1-.512.162l-.108.009c-.06.006-.138.009-.234.009-.228 0-.597-.039-1.107-.117-.51-.078-1.134-.27-1.872-.576-.738-.306-1.575-.766-2.51-1.378-.936-.612-1.932-1.453-2.988-2.521-.84-.829-1.536-1.62-2.087-2.377a16.938 16.938 0 0 1-1.332-2.098 11.303 11.303 0 0 1-.756-1.747 9.273 9.273 0 0 1-.342-1.35 4.463 4.463 0 0 1-.072-.892c.012-.216.018-.336.018-.36.024-.168.078-.34.162-.514a1.35 1.35 0 0 1 .306-.423L2.882.252A.792.792 0 0 1 3.458 0c.156 0 .294.045.414.135.12.09.222.201.306.333l1.926 3.656a.877.877 0 0 1 .09.63c-.048.228-.15.42-.306.576l-.882.883a.3.3 0 0 0-.063.117.445.445 0 0 0-.027.135c.048.252.156.54.324.864.144.289.366.64.666 1.054.3.414.726.891 1.278 1.432.54.552 1.02.981 1.44 1.287.42.306.77.531 1.052.676.282.144.498.23.648.26l.225.046a.429.429 0 0 0 .117-.027.3.3 0 0 0 .117-.063l1.026-1.045c.216-.192.468-.288.756-.288.204 0 .366.036.486.108h.018l3.473 2.053c.252.156.402.354.45.594z"/></svg>