<svg xmlns="http://www.w3.org/2000/svg" width="21" height="23"><path d="M4.207 4.784c3.337-3.222 8.33-3.271 11.712-.33l-2.681.108c-.346.015-.614.32-.6.69.014.36.29.64.623.64h.023l4.116-.163c.337-.014.6-.305.6-.665v-.078L17.848.64c-.014-.37-.305-.655-.646-.64-.346.014-.614.32-.6.69l.097 2.723A9.776 9.776 0 0 0 10.755.986c-2.732-.148-5.357.852-7.383 2.812C.585 6.493-.596 10.591.289 14.493A.63.63 0 0 0 .894 15c.05 0 .097-.005.148-.02.332-.088.54-.448.456-.803-.775-3.428.259-7.029 2.71-9.393zm16.505 4.689a.622.622 0 0 0-.75-.455.622.622 0 0 0-.455.75 8.96 8.96 0 0 1-8.71 11.08 8.957 8.957 0 0 1-5.734-2.064l2.704-.244a.62.62 0 0 0 .56-.676.617.617 0 0 0-.675-.56l-4.088.367a.62.62 0 0 0-.561.676l.368 4.087a.62.62 0 0 0 .616.566c.018 0 .037 0 .055-.005a.62.62 0 0 0 .561-.675l-.22-2.488a10.143 10.143 0 0 0 6.419 2.262 10.15 10.15 0 0 0 6.838-2.639 10.208 10.208 0 0 0 3.072-9.982z" fill="#0095B3"/></svg>