<svg xmlns="http://www.w3.org/2000/svg" width="10" height="12"><path d="M9.737 7H8.42V5.75c0-1.707-1.394-3.109-3.158-3.237V1.454A.752.752 0 0 0 5.79.75C5.79.336 5.435 0 5 0c-.435 0-.79.336-.79.75 0 .325.221.6.527.704v1.059C2.973 2.64 1.579 4.042 1.579 5.75V7H.263A.257.257 0 0 0 0 7.25v4.5c0 .138.118.25.263.25h3.684a.257.257 0 0 0 .264-.25v-1.5c0-.414.354-.75.789-.75.435 0 .79.336.79.75v1.5c0 .138.117.25.263.25h3.684a.257.257 0 0 0 .263-.25v-4.5A.257.257 0 0 0 9.737 7zM5 .5c.145 0 .263.112.263.25S5.145 1 5 1a.257.257 0 0 1-.263-.25c0-.138.118-.25.263-.25zM5 3c1.507 0 2.748 1.1 2.882 2.5H2.118C2.252 4.1 3.493 3 5 3zM2.105 6h5.79v1h-5.79V6zm7.369 5.5H6.316v-1.25C6.316 9.561 5.726 9 5 9c-.725 0-1.316.561-1.316 1.25v1.25H.526v-4h8.948v4z"/></svg>