<svg xmlns="http://www.w3.org/2000/svg" width="11" height="10"><path d="M9.389 2v-.255a.945.945 0 0 0 .644.255c.533 0 .967-.449.967-1 0-.551-.434-1-.967-1a.945.945 0 0 0-.644.255V0H1.61v.255A.945.945 0 0 0 .967 0C.434 0 0 .449 0 1c0 .551.434 1 .967 1a.945.945 0 0 0 .644-.255V2h.323v6H1.61v.255A.945.945 0 0 0 .967 8C.434 8 0 8.449 0 9c0 .551.434 1 .967 1a.945.945 0 0 0 .644-.255V10H9.39v-.255a.945.945 0 0 0 .644.255c.533 0 .967-.449.967-1 0-.551-.434-1-.967-1a.945.945 0 0 0-.644.255V8h-.323V2h.323zm-7.51-.667a1.028 1.028 0 0 0 0-.667h7.243a1.027 1.027 0 0 0 0 .667H1.878zm8.154-.666c.178 0 .322.15.322.333a.328.328 0 0 1-.322.333A.328.328 0 0 1 9.711 1c0-.184.145-.333.322-.333zm-9.066.666A.328.328 0 0 1 .645 1c0-.184.144-.333.322-.333.177 0 .322.15.322.333a.328.328 0 0 1-.322.333zm8.155 7.334a1.027 1.027 0 0 0 0 .666H1.878a1.027 1.027 0 0 0 0-.666h7.244zm-8.155.666A.328.328 0 0 1 .645 9c0-.184.144-.333.322-.333.177 0 .322.15.322.333a.328.328 0 0 1-.322.333zm9.066-.666c.178 0 .322.15.322.333a.328.328 0 0 1-.322.333A.328.328 0 0 1 9.711 9c0-.184.145-.333.322-.333zM8.422 8H2.578V2h5.844v6z"/><path d="M3 3h5v1H3zm0 1h5v1H3zm0 1h5v1H3zm0 2h5v1H3z"/></svg>